<?xml version="1.0" encoding="utf-8"?>
<!-- Generator: Adobe Illustrator 28.0.0, SVG Export Plug-In . SVG Version: 6.00 Build 0)  -->
<svg version="1.1" id="Layer_1" xmlns="http://www.w3.org/2000/svg" xmlns:xlink="http://www.w3.org/1999/xlink" x="0px" y="0px"
	 viewBox="0 0 1400.9 1607" style="enable-background:new 0 0 1400.9 1607;" xml:space="preserve">
<style type="text/css">
	.st0{fill:#35B40E;}
	.st1{fill:#36B40F;}
</style>
<g>
	<g>
		<path class="st0" d="M2.8,1076.9c-0.3-4.2,0-8.3,0.3-12.4c0.9-10.5,1.9-21,3.3-31.5c1.9-14.3,4.2-28.5,7.1-42.6
			c18.2-88.6,54.3-168.9,110.3-240.1c52-66.2,116.1-117.8,191-156c34.2-17.5,69.9-31.6,106.7-42.7c4.1-1.2,8.3-2.2,12.5-3.2
			c0.6-0.2,1.3-0.3,1.8,0.2c0.4,1-0.1,1.8-0.5,2.7c-10.1,26.6-20.3,53.1-30.4,79.7c-7.9,20.7-20.9,37.6-38,51.5
			c-5.6,4.6-11.5,8.7-17.5,12.6c-16.3,10.4-32.5,21-47.9,32.7c-36.5,27.8-68.8,59.7-95.6,97.1c-25.8,36-45.4,75.2-58.4,117.6
			c-8.9,29.1-12.4,58.8-10,89.1c3,38.6,16,73.5,39,104.6c18.9,25.5,42.1,46.3,68.7,63.4c12.3,7.9,25,14.8,38.3,21
			c2.5,1.1,5,2.2,7.7,2.7c11.6,2.4,21.5-3.7,24.5-15.2c0.8-3,1.1-6,1.1-9c0-18.9,0.1-37.8,0.1-56.6c0-20.6,0-41.3,0.1-61.9
			c0-10.6,1.4-21.1,4.7-31.2c6.5-19.6,18.7-34.4,36.8-44.2c14.1-7.7,29.2-12.3,45.2-13.1c14.8-0.8,28.9,2.2,42.5,8
			c9.9,4.2,19,9.8,26.9,17.3c11.8,11.3,18.8,25.3,22.3,41.1c1.8,8.5,2.5,17.1,2.5,25.7c0.1,33.4,0.1,66.9,0,100.3
			c-0.2,70.6-0.4,141.1-0.6,211.7c-0.1,22.4-0.1,44.8-0.1,67.2c0,4.6,0.1,9.3,1.1,13.8c1.3,5.9,4,11.1,8.5,15.3
			c8,7.3,18.9,7.4,26.9-0.1c5.9-5.5,8.9-12.4,8.9-20.5c0-8.3-0.1-16.6-0.1-25c-0.1-26.6-0.2-53.1-0.3-79.7
			c-0.2-50.7-0.5-101.4-0.8-152.1c-0.1-18.4-0.2-36.8-0.3-55.2c-0.3-52.2-0.5-104.3-0.8-156.5c-0.1-11.4,0.1-22.7-0.1-34.1
			c-0.4-18.7,5.9-34.8,18.5-48.5c16.1-17.5,35.5-29.6,58.7-35.3c7.6-1.8,15.4-3,23.2-3.2c7.8-0.2,15.7-0.3,23.5-0.1
			c24.5,0.7,45.9,9.5,64.1,25.6c12.4,11,21,24.5,24.8,40.7c1.6,6.6,2.1,13.3,2.1,20c0,42.7,0,85.4-0.1,128.2
			c0,48.5-0.1,97-0.1,145.4c0,46.2-0.1,92.5-0.2,138.7c0,23.4,0,46.7-0.1,70.1c0,2.9,0.1,5.8,0.5,8.6c0.9,6.7,4.1,12.1,9.1,16.4
			c8.3,7.1,19.3,5.7,26.3-0.7c5-4.6,7.4-10.3,7.8-17c0.1-1.9,0.1-3.8,0.1-5.8c0-88.5,0-177,0-265.4c0-21.4-0.1-42.9-0.3-64.3
			c-0.1-10.2,0-20.5,0.3-30.7c1.2-34.7,21.3-62.9,53.8-75.3c12.7-4.9,25.9-7.3,39.5-6.7c23.9,1.1,44.9,9.4,62.3,26.1
			c11.8,11.3,18.8,25.3,22.1,41.2c1.3,6.3,1.9,12.6,2,19.1c0.1,20.8,0.2,41.6,0.3,62.4c0,5.6,0.1,11.2,0.2,16.8
			c0.1,4.7,0.6,9.2,2.4,13.6c3,7.5,8.1,12.9,15.6,16c5.5,2.3,11.2,3.4,17.3,3.1c7.7-0.4,15.2-2,22.6-4c24.7-6.7,47.7-17.3,69.4-30.9
			c34.3-21.7,62.5-49.7,85.5-83c19.1-27.5,33.6-57.3,44.7-88.8c8.5-24.2,14.9-48.9,19.6-74.1c3.1-16.8,5.4-33.8,7.3-50.8
			c0.3-2.9,0.5-5.7,0.8-8.6c0.1-0.9,0.1-1.9,1-2.9c1.1,6.1,2.2,12.1,3.1,18.1c1.6,10.3,3.2,20.5,4.5,30.8c1.3,10.3,2.2,20.7,3.3,31
			c1.2,12.1,1.8,24.2,2.4,36.4c0.4,7.7,0.4,15.4,0.5,23c0.2,17.3,0,34.6-1.2,51.8c-1,14.7-2.4,29.3-4.3,43.9
			c-3.2,24.8-8.1,49.2-14.2,73.4c-2.6,10.5-4.8,21.2-7.7,31.7c-13,46.1-33.1,88.9-59.5,128.7c-20.7,31.2-44.6,59.7-71,86.1
			c-31.4,31.5-65.6,59.5-103.2,83.4c-27.1,17.2-55.4,31.8-85,44.1c-20.7,8.6-41.4,16.9-62.7,23.8c-29.5,9.6-59.5,17.3-90,23.2
			c-17.4,3.3-35,6.1-52.6,8.2c-11.7,1.4-23.5,2.6-35.3,3.3c-5.3,0.3-10.5,0.7-15.8,1c-1.3,0.1-2.5,0-3.8-0.1
			c-3.9,0-7.8-0.1-11.7-0.1c-1.1,0-2.2-0.1-3,1c-14.1,0-28.2,0-42.2,0c-0.8-1-1.9-1-3-1c-3.9,0-7.8,0.1-11.7,0.1
			c-1.4,0-2.9,0.1-4.3,0.1c-15.3-0.7-30.6-2-45.9-3.8c-15.6-1.8-31.1-4-46.5-6.7c-28.8-5.1-57.3-11.8-85.3-20.4
			c-12.8-3.9-25.5-8.4-38.3-12.5c-35.9-11.4-70.4-26.1-103.3-44.6c-70.8-40-130.4-92.8-180-156.9c-29.2-37.7-52.2-78.8-68.8-123.6
			c-13.8-37.3-22.2-75.7-25.2-115.3c-0.3-4.1-0.7-8.3-0.3-12.4C2.8,1099.6,2.8,1088.3,2.8,1076.9z"/>
		<path class="st1" d="M1402.6,5.8c-1.4,2-1.6,4.4-2.4,6.6c-9.5,24.9-22.8,47.5-39.4,68.3c-11.6,14.5-24.6,27.8-38.4,40.2
			c-2.1,1.9-4.2,3.9-6.2,6c-46.2,49.3-99.6,88.4-161.7,115.4c-32.7,14.2-66.5,24.6-101.4,31.5c-17.6,3.4-35.3,6.2-53.1,7.7
			c-12.1,1-24.2,1.9-36.3,2.8c-10.4,0.8-20.7,1.6-31.1,2.5c-9.6,0.8-19.1,1.5-28.7,2.3c-9.4,0.8-18.8,1.7-28.2,2.5
			c-8.3,0.7-16.6,1.5-24.8,2.2c-11.9,1.1-23.9,2.3-35.8,3.5c-10.3,1-20.7,2.1-31,3.2c-9.9,1.1-19.7,2.2-29.5,3.4
			c-9,1.1-18.1,2.1-27.1,3.3c-10.9,1.4-21.9,2.8-32.8,4.3c-10.1,1.4-20.3,2.8-30.4,4.3c-11.4,1.7-22.8,3.4-34.1,5.2
			c-14.2,2.3-28.4,4.7-42.5,7.3c-25,4.5-50,9-74.6,15.4c-46.1,12-91.5,26.5-135.4,45.1c-38.6,16.3-75.2,36.1-109.3,60.4
			c-20.5,14.6-39.6,30.9-56.8,49.3c-12.4,13.3-23.6,27.4-33.5,42.6c-8.5,13-16.8,26.1-25.1,39.2c-1.1,1.8-2.2,3.5-3.9,4.8
			c-0.5,0.4-1.4,0-1.4-0.6c-0.1-0.8-0.1-1.6-0.1-2.4c-0.1-7-0.2-14.1-0.2-21.1c0.7-63.8,20-121.3,59.5-171.7
			c21.9-27.9,47.9-51.5,77.1-71.5c37.2-25.5,76.7-46.6,118.4-63.9c45.5-18.8,92.3-33.2,140.6-42.8c22.4-4.5,44.9-8.3,67.6-11.6
			c19.6-2.8,39.2-5.6,58.8-8.6c19.8-3,39.5-6.1,59.2-9.2c17.1-2.7,34.1-5.2,51.2-8c15.5-2.5,30.9-5.2,46.3-7.9
			c15.1-2.7,30.2-5.3,45.3-8.2c20.6-3.9,41.1-7.8,61.7-12c31-6.3,61.9-13.3,92.6-20.8c109.5-26.7,216.7-60.4,321.2-102.7
			c14.1-5.7,28-11.7,42.4-16.6c2.9-1,5.8-1.9,8.6-3c1.7-0.6,3.4-0.8,5.2-0.6C1402.6,3.2,1402.6,4.5,1402.6,5.8z"/>
		<path class="st1" d="M2.8,1110.9c-0.6-0.5-1.1-1.4-1.8-0.2c0-11.2,0-22.4,0-33.6c0.7,1.2,1.3,0.3,1.9-0.2
			C2.8,1088.3,2.8,1099.6,2.8,1110.9z"/>
		<path class="st1" d="M601,1608c0-0.3,0-0.6-0.3-0.9c3.9,0,7.8-0.1,11.7-0.1c1.1,0,2.2-0.1,3,1C610.6,1608,605.8,1608,601,1608z"/>
		<path class="st1" d="M657.6,1608c0.8-1,1.9-1,3-1c3.9,0,7.8,0.1,11.7,0.1c-0.2,0.2-0.3,0.5-0.3,0.9
			C667.2,1608,662.4,1608,657.6,1608z"/>
		<path class="st1" d="M749.4,718.6C749,770.9,713,815.3,664,826.1c-44.5,9.8-89.4-6.7-115.5-43.7c-10.6-15.1-16.9-31.8-18.9-50.2
			c-2.7-23.9,1.2-46.6,12.9-67.7c16.6-29.7,41.9-47.8,75.3-54.1c22.9-4.3,45.3-2.2,66.7,7.4c30.9,13.9,50.6,37.8,60.4,69.9
			C748,697.9,749.3,708.4,749.4,718.6z"/>
		<path class="st1" d="M476.2,406.5c0,3.3-1.3,6.2-2.5,9.2c-3.1,7.7-6.3,15.4-9.6,23c-8.4,19.2-18.4,37.6-28.6,55.9
			c-3.6,6.5-8.8,11-15.9,13.1c-30.9,9.3-59.9,23.1-88.6,37.6c-52.1,26.4-99.7,59.3-142.9,98.5c-11.3,10.2-21.3,21.6-30.9,33.4
			c-1,1.2-1.8,2.7-2.8,3.9c-0.8,1-1.9,1.7-3.3,1.5c-1.7-0.3-2.9-1.2-3.5-2.9c-0.4-1.3-0.3-2.5-0.2-3.8c1.1-9.5,2.6-19,4.8-28.3
			c9.9-42.5,29.3-80.3,56.5-114.2c22-27.4,48.5-49.4,78.6-67.4c38.1-22.7,78.7-38.9,121.8-49.2c17.4-4.2,35.1-7.2,52.8-9.3
			c3.3-0.4,6.7-0.7,10-1C473.3,406.1,474.7,405.7,476.2,406.5z"/>
		<path class="st1" d="M991.1,839.7c0.2,51.4-40.4,93.3-92.5,93.4c-56.1,0.1-94.2-44.4-93.9-92.5c0.4-58.8,47-93.9,93.3-93.8
			C949.4,746.9,991.3,788.2,991.1,839.7z"/>
		<path class="st1" d="M490,840.4c0.4,50.7-41.3,92.8-92.7,92.7c-54.1-0.1-93.9-42.8-93.6-92.3c0.5-60.6,48.5-94.2,93.5-94.1
			C447.6,746.9,490.6,787.8,490,840.4z"/>
	</g>
</g>
</svg>
